<?xml version="1.0" standalone="no"?>
<!DOCTYPE svg PUBLIC "-//W3C//DTD SVG 20010904//EN"
 "http://www.w3.org/TR/2001/REC-SVG-20010904/DTD/svg10.dtd">
<svg version="1.0" xmlns="http://www.w3.org/2000/svg"
 width="70.000000pt" height="70.000000pt" viewBox="0 0 70.000000 70.000000"
 preserveAspectRatio="xMidYMid meet">
<metadata>
Created by potrace 1.15, written by Peter Selinger 2001-2017
</metadata>
<g transform="translate(0.000000,70.000000) scale(0.100000,-0.100000)"
fill="#000000" stroke="none">
<path d="M135 396 c-30 -52 -55 -97 -55 -100 0 -3 44 -6 98 -6 l97 0 53 91
c28 50 52 95 52 100 0 5 -43 9 -95 9 l-94 0 -56 -94z"/>
<path d="M374 438 c-17 -29 -43 -74 -59 -100 l-27 -48 100 0 100 0 56 96 c31
52 56 97 56 100 0 2 -44 4 -98 4 l-97 0 -31 -52z"/>
</g>
</svg>
